<?xml version="1.0" encoding="UTF-8" standalone="no"?>
<svg
   xmlns:dc="http://purl.org/dc/elements/1.1/"
   xmlns:cc="http://creativecommons.org/ns#"
   xmlns:rdf="http://www.w3.org/1999/02/22-rdf-syntax-ns#"
   xmlns:svg="http://www.w3.org/2000/svg"
   xmlns="http://www.w3.org/2000/svg"
   xmlns:sodipodi="http://sodipodi.sourceforge.net/DTD/sodipodi-0.dtd"
   xmlns:inkscape="http://www.inkscape.org/namespaces/inkscape"
   viewBox="0 0 135.06 68.62"
   id="svg2"
   version="1.1"
   inkscape:version="0.91 r13725"
   sodipodi:docname="PORTADA.svg"
   width="135.06"
   height="68.620003"
   inkscape:export-filename="E:\pyqgis\SAM_GEO\plugin\geosam\Icon.png"
   inkscape:export-xdpi="36.147717"
   inkscape:export-ydpi="36.147717">
  <metadata
     id="metadata82">
    <rdf:RDF>
      <cc:Work
         rdf:about="">
        <dc:format>image/svg+xml</dc:format>
        <dc:type
           rdf:resource="http://purl.org/dc/dcmitype/StillImage" />
        <dc:title></dc:title>
      </cc:Work>
    </rdf:RDF>
  </metadata>
  <defs
     id="defs80" />
  <sodipodi:namedview
     pagecolor="#ffffff"
     bordercolor="#666666"
     borderopacity="1"
     objecttolerance="10"
     gridtolerance="10"
     guidetolerance="10"
     inkscape:pageopacity="0"
     inkscape:pageshadow="2"
     inkscape:window-width="1536"
     inkscape:window-height="801"
     id="namedview78"
     showgrid="false"
     inkscape:zoom="4.4459712"
     inkscape:cx="93.094335"
     inkscape:cy="25.455482"
     inkscape:window-x="-8"
     inkscape:window-y="-8"
     inkscape:window-maximized="1"
     inkscape:current-layer="svg2" />
  <g
     id="g4220"
     transform="matrix(0.59082728,0,0,0.58563851,42.945178,9.6708752)"
     inkscape:export-filename="E:\pyqgis\SAM_GEO\plugin\geosam\fondoimagen.png"
     inkscape:export-xdpi="417.92001"
     inkscape:export-ydpi="417.92001">
    <g
       id="g4258"
       transform="translate(-6.0930647,-2.6344497)">
      <rect
         style="color:#000000;clip-rule:nonzero;display:inline;overflow:visible;visibility:visible;opacity:1;isolation:auto;mix-blend-mode:normal;color-interpolation:sRGB;color-interpolation-filters:linearRGB;solid-color:#000000;solid-opacity:1;fill:#2a7fff;fill-opacity:1;fill-rule:evenodd;stroke:none;stroke-width:1;stroke-linecap:round;stroke-linejoin:bevel;stroke-miterlimit:4;stroke-dasharray:none;stroke-dashoffset:0;stroke-opacity:1;color-rendering:auto;image-rendering:auto;shape-rendering:auto;text-rendering:auto;enable-background:accumulate"
         id="rect4331"
         width="218.69601"
         height="111.70212"
         x="-60.467205"
         y="-9.9740963" />
      <g
         id="g4303"
         style="fill:#ffffff"
         transform="translate(12,-8)">
        <ellipse
           ry="8.7400684"
           rx="8.4670124"
           cy="13.285583"
           cx="39.465733"
           id="path4177"
           style="color:#000000;clip-rule:nonzero;display:inline;overflow:visible;visibility:visible;opacity:1;isolation:auto;mix-blend-mode:normal;color-interpolation:sRGB;color-interpolation-filters:linearRGB;solid-color:#000000;solid-opacity:1;fill:#ffffff;fill-opacity:1;fill-rule:evenodd;stroke:none;stroke-width:1.17742002;stroke-linecap:round;stroke-linejoin:bevel;stroke-miterlimit:4;stroke-dasharray:none;stroke-dashoffset:0;stroke-opacity:1;color-rendering:auto;image-rendering:auto;shape-rendering:auto;text-rendering:auto;enable-background:accumulate" />
        <ellipse
           style="color:#000000;clip-rule:nonzero;display:inline;overflow:visible;visibility:visible;opacity:1;isolation:auto;mix-blend-mode:normal;color-interpolation:sRGB;color-interpolation-filters:linearRGB;solid-color:#000000;solid-opacity:1;fill:#ffffff;fill-opacity:1;fill-rule:evenodd;stroke:none;stroke-width:1.17742002;stroke-linecap:round;stroke-linejoin:bevel;stroke-miterlimit:4;stroke-dasharray:none;stroke-dashoffset:0;stroke-opacity:1;color-rendering:auto;image-rendering:auto;shape-rendering:auto;text-rendering:auto;enable-background:accumulate"
           id="ellipse4179"
           cx="39.458866"
           cy="71.355278"
           rx="8.4670124"
           ry="8.7400684" />
        <ellipse
           ry="8.7400684"
           rx="8.4670124"
           cy="42.593483"
           cx="10.339871"
           id="ellipse4181"
           style="color:#000000;clip-rule:nonzero;display:inline;overflow:visible;visibility:visible;opacity:1;isolation:auto;mix-blend-mode:normal;color-interpolation:sRGB;color-interpolation-filters:linearRGB;solid-color:#000000;solid-opacity:1;fill:#ffffff;fill-opacity:1;fill-rule:evenodd;stroke:none;stroke-width:1.17742002;stroke-linecap:round;stroke-linejoin:bevel;stroke-miterlimit:4;stroke-dasharray:none;stroke-dashoffset:0;stroke-opacity:1;color-rendering:auto;image-rendering:auto;shape-rendering:auto;text-rendering:auto;enable-background:accumulate" />
        <ellipse
           style="color:#000000;clip-rule:nonzero;display:inline;overflow:visible;visibility:visible;opacity:1;isolation:auto;mix-blend-mode:normal;color-interpolation:sRGB;color-interpolation-filters:linearRGB;solid-color:#000000;solid-opacity:1;fill:#ffffff;fill-opacity:1;fill-rule:evenodd;stroke:none;stroke-width:1.17742002;stroke-linecap:round;stroke-linejoin:bevel;stroke-miterlimit:4;stroke-dasharray:none;stroke-dashoffset:0;stroke-opacity:1;color-rendering:auto;image-rendering:auto;shape-rendering:auto;text-rendering:auto;enable-background:accumulate"
           id="ellipse4183"
           cx="68.753036"
           cy="42.229408"
           rx="8.4670124"
           ry="8.7400684" />
        <ellipse
           ry="6.0095186"
           rx="5.9770193"
           cy="13.649654"
           cx="23.387991"
           id="ellipse4189"
           style="color:#000000;clip-rule:nonzero;display:inline;overflow:visible;visibility:visible;opacity:1;isolation:auto;mix-blend-mode:normal;color-interpolation:sRGB;color-interpolation-filters:linearRGB;solid-color:#000000;solid-opacity:1;fill:#ffffff;fill-opacity:1;fill-rule:evenodd;stroke:none;stroke-width:1.17742002;stroke-linecap:round;stroke-linejoin:bevel;stroke-miterlimit:4;stroke-dasharray:none;stroke-dashoffset:0;stroke-opacity:1;color-rendering:auto;image-rendering:auto;shape-rendering:auto;text-rendering:auto;enable-background:accumulate" />
        <ellipse
           ry="6.0095186"
           rx="6.4646091"
           cy="54.425865"
           cx="39.829807"
           id="ellipse4201"
           style="color:#000000;clip-rule:nonzero;display:inline;overflow:visible;visibility:visible;opacity:1;isolation:auto;mix-blend-mode:normal;color-interpolation:sRGB;color-interpolation-filters:linearRGB;solid-color:#000000;solid-opacity:1;fill:#ffffff;fill-opacity:1;fill-rule:evenodd;stroke:none;stroke-width:1.17742002;stroke-linecap:round;stroke-linejoin:bevel;stroke-miterlimit:4;stroke-dasharray:none;stroke-dashoffset:0;stroke-opacity:1;color-rendering:auto;image-rendering:auto;shape-rendering:auto;text-rendering:auto;enable-background:accumulate" />
        <ellipse
           style="color:#000000;clip-rule:nonzero;display:inline;overflow:visible;visibility:visible;opacity:1;isolation:auto;mix-blend-mode:normal;color-interpolation:sRGB;color-interpolation-filters:linearRGB;solid-color:#000000;solid-opacity:1;fill:#ffffff;fill-opacity:1;fill-rule:evenodd;stroke:none;stroke-width:1.17742002;stroke-linecap:round;stroke-linejoin:bevel;stroke-miterlimit:4;stroke-dasharray:none;stroke-dashoffset:0;stroke-opacity:1;color-rendering:auto;image-rendering:auto;shape-rendering:auto;text-rendering:auto;enable-background:accumulate"
           id="ellipse4207"
           cx="39.465733"
           cy="30.032957"
           rx="6.4646091"
           ry="6.0095186" />
        <ellipse
           ry="3.7605608"
           rx="3.773967"
           cy="12.923722"
           cx="10.339971"
           id="ellipse4209"
           style="color:#000000;clip-rule:nonzero;display:inline;overflow:visible;visibility:visible;opacity:1;isolation:auto;mix-blend-mode:normal;color-interpolation:sRGB;color-interpolation-filters:linearRGB;solid-color:#000000;solid-opacity:1;fill:#ffffff;fill-opacity:1;fill-rule:evenodd;stroke:none;stroke-width:0.71164888;stroke-linecap:round;stroke-linejoin:bevel;stroke-miterlimit:4;stroke-dasharray:none;stroke-dashoffset:0;stroke-opacity:1;color-rendering:auto;image-rendering:auto;shape-rendering:auto;text-rendering:auto;enable-background:accumulate" />
        <ellipse
           style="color:#000000;clip-rule:nonzero;display:inline;overflow:visible;visibility:visible;opacity:1;isolation:auto;mix-blend-mode:normal;color-interpolation:sRGB;color-interpolation-filters:linearRGB;solid-color:#000000;solid-opacity:1;fill:#ffffff;fill-opacity:1;fill-rule:evenodd;stroke:none;stroke-width:0.71164888;stroke-linecap:round;stroke-linejoin:bevel;stroke-miterlimit:4;stroke-dasharray:none;stroke-dashoffset:0;stroke-opacity:1;color-rendering:auto;image-rendering:auto;shape-rendering:auto;text-rendering:auto;enable-background:accumulate"
           id="ellipse4211"
           cx="10.339971"
           cy="12.923722"
           rx="3.773967"
           ry="3.7605608" />
        <ellipse
           ry="3.7605608"
           rx="3.773967"
           cy="71.814934"
           cx="10.508252"
           id="ellipse4213"
           style="color:#000000;clip-rule:nonzero;display:inline;overflow:visible;visibility:visible;opacity:1;isolation:auto;mix-blend-mode:normal;color-interpolation:sRGB;color-interpolation-filters:linearRGB;solid-color:#000000;solid-opacity:1;fill:#ffffff;fill-opacity:1;fill-rule:evenodd;stroke:none;stroke-width:0.71164888;stroke-linecap:round;stroke-linejoin:bevel;stroke-miterlimit:4;stroke-dasharray:none;stroke-dashoffset:0;stroke-opacity:1;color-rendering:auto;image-rendering:auto;shape-rendering:auto;text-rendering:auto;enable-background:accumulate" />
        <ellipse
           style="color:#000000;clip-rule:nonzero;display:inline;overflow:visible;visibility:visible;opacity:1;isolation:auto;mix-blend-mode:normal;color-interpolation:sRGB;color-interpolation-filters:linearRGB;solid-color:#000000;solid-opacity:1;fill:#ffffff;fill-opacity:1;fill-rule:evenodd;stroke:none;stroke-width:0.71164888;stroke-linecap:round;stroke-linejoin:bevel;stroke-miterlimit:4;stroke-dasharray:none;stroke-dashoffset:0;stroke-opacity:1;color-rendering:auto;image-rendering:auto;shape-rendering:auto;text-rendering:auto;enable-background:accumulate"
           id="ellipse4215"
           cx="25.315182"
           cy="56.671478"
           rx="3.773967"
           ry="3.7605608" />
        <ellipse
           ry="3.7605608"
           rx="3.773967"
           cy="27.730656"
           cx="25.146915"
           id="ellipse4217"
           style="color:#000000;clip-rule:nonzero;display:inline;overflow:visible;visibility:visible;opacity:1;isolation:auto;mix-blend-mode:normal;color-interpolation:sRGB;color-interpolation-filters:linearRGB;solid-color:#000000;solid-opacity:1;fill:#ffffff;fill-opacity:1;fill-rule:evenodd;stroke:none;stroke-width:0.71164888;stroke-linecap:round;stroke-linejoin:bevel;stroke-miterlimit:4;stroke-dasharray:none;stroke-dashoffset:0;stroke-opacity:1;color-rendering:auto;image-rendering:auto;shape-rendering:auto;text-rendering:auto;enable-background:accumulate" />
        <ellipse
           style="color:#000000;clip-rule:nonzero;display:inline;overflow:visible;visibility:visible;opacity:1;isolation:auto;mix-blend-mode:normal;color-interpolation:sRGB;color-interpolation-filters:linearRGB;solid-color:#000000;solid-opacity:1;fill:#ffffff;fill-opacity:1;fill-rule:evenodd;stroke:none;stroke-width:0.71164888;stroke-linecap:round;stroke-linejoin:bevel;stroke-miterlimit:4;stroke-dasharray:none;stroke-dashoffset:0;stroke-opacity:1;color-rendering:auto;image-rendering:auto;shape-rendering:auto;text-rendering:auto;enable-background:accumulate"
           id="ellipse4219"
           cx="53.919483"
           cy="27.730656"
           rx="3.773967"
           ry="3.7605608" />
        <ellipse
           ry="3.7605608"
           rx="3.773967"
           cy="13.091984"
           cx="68.894669"
           id="ellipse4221"
           style="color:#000000;clip-rule:nonzero;display:inline;overflow:visible;visibility:visible;opacity:1;isolation:auto;mix-blend-mode:normal;color-interpolation:sRGB;color-interpolation-filters:linearRGB;solid-color:#000000;solid-opacity:1;fill:#ffffff;fill-opacity:1;fill-rule:evenodd;stroke:none;stroke-width:0.71164888;stroke-linecap:round;stroke-linejoin:bevel;stroke-miterlimit:4;stroke-dasharray:none;stroke-dashoffset:0;stroke-opacity:1;color-rendering:auto;image-rendering:auto;shape-rendering:auto;text-rendering:auto;enable-background:accumulate" />
        <ellipse
           style="color:#000000;clip-rule:nonzero;display:inline;overflow:visible;visibility:visible;opacity:1;isolation:auto;mix-blend-mode:normal;color-interpolation:sRGB;color-interpolation-filters:linearRGB;solid-color:#000000;solid-opacity:1;fill:#ffffff;fill-opacity:1;fill-rule:evenodd;stroke:none;stroke-width:0.71164888;stroke-linecap:round;stroke-linejoin:bevel;stroke-miterlimit:4;stroke-dasharray:none;stroke-dashoffset:0;stroke-opacity:1;color-rendering:auto;image-rendering:auto;shape-rendering:auto;text-rendering:auto;enable-background:accumulate"
           id="ellipse4223"
           cx="68.894669"
           cy="71.478416"
           rx="3.773967"
           ry="3.7605608" />
        <ellipse
           ry="3.7605608"
           rx="3.773967"
           cy="56.671482"
           cx="54.087742"
           id="ellipse4225"
           style="color:#000000;clip-rule:nonzero;display:inline;overflow:visible;visibility:visible;opacity:1;isolation:auto;mix-blend-mode:normal;color-interpolation:sRGB;color-interpolation-filters:linearRGB;solid-color:#000000;solid-opacity:1;fill:#ffffff;fill-opacity:1;fill-rule:evenodd;stroke:none;stroke-width:0.71164888;stroke-linecap:round;stroke-linejoin:bevel;stroke-miterlimit:4;stroke-dasharray:none;stroke-dashoffset:0;stroke-opacity:1;color-rendering:auto;image-rendering:auto;shape-rendering:auto;text-rendering:auto;enable-background:accumulate" />
        <ellipse
           style="color:#000000;clip-rule:nonzero;display:inline;overflow:visible;visibility:visible;opacity:1;isolation:auto;mix-blend-mode:normal;color-interpolation:sRGB;color-interpolation-filters:linearRGB;solid-color:#000000;solid-opacity:1;fill:#ffffff;fill-opacity:1;fill-rule:evenodd;stroke:none;stroke-width:0.71164888;stroke-linecap:round;stroke-linejoin:bevel;stroke-miterlimit:4;stroke-dasharray:none;stroke-dashoffset:0;stroke-opacity:1;color-rendering:auto;image-rendering:auto;shape-rendering:auto;text-rendering:auto;enable-background:accumulate"
           id="ellipse4227"
           cx="39.617329"
           cy="41.864552"
           rx="3.773967"
           ry="3.7605608" />
        <ellipse
           style="color:#000000;clip-rule:nonzero;display:inline;overflow:visible;visibility:visible;opacity:1;isolation:auto;mix-blend-mode:normal;color-interpolation:sRGB;color-interpolation-filters:linearRGB;solid-color:#000000;solid-opacity:1;fill:#ffffff;fill-opacity:1;fill-rule:evenodd;stroke:none;stroke-width:1.17742002;stroke-linecap:round;stroke-linejoin:bevel;stroke-miterlimit:4;stroke-dasharray:none;stroke-dashoffset:0;stroke-opacity:1;color-rendering:auto;image-rendering:auto;shape-rendering:auto;text-rendering:auto;enable-background:accumulate"
           id="ellipse4285"
           cx="55.812702"
           cy="13.40586"
           rx="5.9770193"
           ry="6.0095186" />
        <ellipse
           style="color:#000000;clip-rule:nonzero;display:inline;overflow:visible;visibility:visible;opacity:1;isolation:auto;mix-blend-mode:normal;color-interpolation:sRGB;color-interpolation-filters:linearRGB;solid-color:#000000;solid-opacity:1;fill:#ffffff;fill-opacity:1;fill-rule:evenodd;stroke:none;stroke-width:1.17742002;stroke-linecap:round;stroke-linejoin:bevel;stroke-miterlimit:4;stroke-dasharray:none;stroke-dashoffset:0;stroke-opacity:1;color-rendering:auto;image-rendering:auto;shape-rendering:auto;text-rendering:auto;enable-background:accumulate"
           id="ellipse4287"
           cx="10.250159"
           cy="24.685432"
           rx="5.9770193"
           ry="6.0095186" />
        <ellipse
           ry="6.0095186"
           rx="5.9770193"
           cy="24.967152"
           cx="68.77536"
           id="ellipse4289"
           style="color:#000000;clip-rule:nonzero;display:inline;overflow:visible;visibility:visible;opacity:1;isolation:auto;mix-blend-mode:normal;color-interpolation:sRGB;color-interpolation-filters:linearRGB;solid-color:#000000;solid-opacity:1;fill:#ffffff;fill-opacity:1;fill-rule:evenodd;stroke:none;stroke-width:1.17742002;stroke-linecap:round;stroke-linejoin:bevel;stroke-miterlimit:4;stroke-dasharray:none;stroke-dashoffset:0;stroke-opacity:1;color-rendering:auto;image-rendering:auto;shape-rendering:auto;text-rendering:auto;enable-background:accumulate" />
        <ellipse
           ry="6.0095186"
           rx="5.9770193"
           cy="42.02737"
           cx="25.840385"
           id="ellipse4291"
           style="color:#000000;clip-rule:nonzero;display:inline;overflow:visible;visibility:visible;opacity:1;isolation:auto;mix-blend-mode:normal;color-interpolation:sRGB;color-interpolation-filters:linearRGB;solid-color:#000000;solid-opacity:1;fill:#ffffff;fill-opacity:1;fill-rule:evenodd;stroke:none;stroke-width:1.17742002;stroke-linecap:round;stroke-linejoin:bevel;stroke-miterlimit:4;stroke-dasharray:none;stroke-dashoffset:0;stroke-opacity:1;color-rendering:auto;image-rendering:auto;shape-rendering:auto;text-rendering:auto;enable-background:accumulate" />
        <ellipse
           style="color:#000000;clip-rule:nonzero;display:inline;overflow:visible;visibility:visible;opacity:1;isolation:auto;mix-blend-mode:normal;color-interpolation:sRGB;color-interpolation-filters:linearRGB;solid-color:#000000;solid-opacity:1;fill:#ffffff;fill-opacity:1;fill-rule:evenodd;stroke:none;stroke-width:1.17742002;stroke-linecap:round;stroke-linejoin:bevel;stroke-miterlimit:4;stroke-dasharray:none;stroke-dashoffset:0;stroke-opacity:1;color-rendering:auto;image-rendering:auto;shape-rendering:auto;text-rendering:auto;enable-background:accumulate"
           id="ellipse4293"
           cx="52.834793"
           cy="42.30909"
           rx="5.9770193"
           ry="6.0095186" />
        <ellipse
           style="color:#000000;clip-rule:nonzero;display:inline;overflow:visible;visibility:visible;opacity:1;isolation:auto;mix-blend-mode:normal;color-interpolation:sRGB;color-interpolation-filters:linearRGB;solid-color:#000000;solid-opacity:1;fill:#ffffff;fill-opacity:1;fill-rule:evenodd;stroke:none;stroke-width:1.17742002;stroke-linecap:round;stroke-linejoin:bevel;stroke-miterlimit:4;stroke-dasharray:none;stroke-dashoffset:0;stroke-opacity:1;color-rendering:auto;image-rendering:auto;shape-rendering:auto;text-rendering:auto;enable-background:accumulate"
           id="ellipse4295"
           cx="9.8998165"
           cy="58.493454"
           rx="5.9770193"
           ry="6.0095186" />
        <ellipse
           ry="6.0095186"
           rx="5.9770193"
           cy="58.143112"
           cx="68.58213"
           id="ellipse4297"
           style="color:#000000;clip-rule:nonzero;display:inline;overflow:visible;visibility:visible;opacity:1;isolation:auto;mix-blend-mode:normal;color-interpolation:sRGB;color-interpolation-filters:linearRGB;solid-color:#000000;solid-opacity:1;fill:#ffffff;fill-opacity:1;fill-rule:evenodd;stroke:none;stroke-width:1.17742002;stroke-linecap:round;stroke-linejoin:bevel;stroke-miterlimit:4;stroke-dasharray:none;stroke-dashoffset:0;stroke-opacity:1;color-rendering:auto;image-rendering:auto;shape-rendering:auto;text-rendering:auto;enable-background:accumulate" />
        <ellipse
           ry="6.0095186"
           rx="5.9770193"
           cy="71.631287"
           cx="23.387989"
           id="ellipse4299"
           style="color:#000000;clip-rule:nonzero;display:inline;overflow:visible;visibility:visible;opacity:1;isolation:auto;mix-blend-mode:normal;color-interpolation:sRGB;color-interpolation-filters:linearRGB;solid-color:#000000;solid-opacity:1;fill:#ffffff;fill-opacity:1;fill-rule:evenodd;stroke:none;stroke-width:1.17742002;stroke-linecap:round;stroke-linejoin:bevel;stroke-miterlimit:4;stroke-dasharray:none;stroke-dashoffset:0;stroke-opacity:1;color-rendering:auto;image-rendering:auto;shape-rendering:auto;text-rendering:auto;enable-background:accumulate" />
        <ellipse
           style="color:#000000;clip-rule:nonzero;display:inline;overflow:visible;visibility:visible;opacity:1;isolation:auto;mix-blend-mode:normal;color-interpolation:sRGB;color-interpolation-filters:linearRGB;solid-color:#000000;solid-opacity:1;fill:#ffffff;fill-opacity:1;fill-rule:evenodd;stroke:none;stroke-width:1.17742002;stroke-linecap:round;stroke-linejoin:bevel;stroke-miterlimit:4;stroke-dasharray:none;stroke-dashoffset:0;stroke-opacity:1;color-rendering:auto;image-rendering:auto;shape-rendering:auto;text-rendering:auto;enable-background:accumulate"
           id="ellipse4301"
           cx="55.269127"
           cy="71.105774"
           rx="5.9770193"
           ry="6.0095186" />
      </g>
      <g
         id="g4211"
         transform="matrix(0.36555262,0,0,0.37464692,-20.682124,175.33799)">
        <path
           id="path4200"
           d="m 73.205011,-268.73666 c -0.43085,-0.0438 -1.082421,0.0602 -2.066231,0.256 -11.475598,2.28462 -20.782286,10.98033 -22.852184,21.35256 -1.009517,5.05866 0.127696,12.40659 2.635561,17.02951 3.043504,5.61029 10.624451,11.61185 17.007562,13.46526 5.134155,1.49077 14.333596,0.57391 19.813926,-1.97414 8.069723,-3.75198 14.055725,-11.68007 15.292635,-20.25594 l 0.55961,-3.87701 -8.78566,0 -8.785665,0 -2.482825,-2.95592 c -2.180312,-2.59679 -2.97104,-2.95592 -6.511136,-2.95592 -8.048638,0 -12.044783,7.66499 -6.979102,13.3861 1.235177,1.39497 3.3937,2.77534 4.796217,3.06807 3.4113,0.71203 8.201881,-1.28689 9.771578,-4.07758 1.188735,-2.1134 1.634668,-2.242 7.77615,-2.242 7.277576,0 7.415098,0.1563 4.851768,5.48955 -5.220051,10.86081 -19.611105,16.04783 -30.793577,11.09921 -9.340395,-4.13342 -14.053083,-11.04139 -13.997081,-20.51855 0.06207,-10.50419 5.922875,-17.87154 16.807608,-21.13218 4.015594,-1.20291 4.762895,-1.7441 4.762895,-3.45076 0,-1.14918 -0.103975,-1.63325 -0.822049,-1.70626 z m 3.297925,23.8598 c 0.652764,-0.0506 1.319983,0.12837 2.227307,0.52125 2.715587,1.17582 3.451834,3.3115 2.060682,5.9778 -1.1351,2.17556 -4.513971,2.90192 -6.986043,1.50172 -2.342514,-1.32683 -2.014221,-5.53947 0.55683,-7.14038 0.84981,-0.52915 1.488459,-0.80976 2.141224,-0.86039 z"
           style="fill:#ffffff"
           inkscape:connector-curvature="0" />
        <path
           id="path4196"
           d="m 112.28713,-268.30119 -0.9123,2.27897 c -1.35983,3.39892 -1.21909,47.98757 0.15552,49.29387 1.34339,1.27666 27.59193,1.41257 30.06317,0.15572 0.98084,-0.49884 1.47352,-1.38184 1.17893,-2.11138 -0.41743,-1.03373 -2.90838,-1.25361 -14.18594,-1.25361 l -13.67908,0 0,-7.54814 0,-7.54816 3.55064,0.0475 c 3.84251,0.0504 7.3788,-1.69025 8.8912,-4.37581 0.69266,-1.22992 1.86007,-1.6891 4.29633,-1.6891 1.84019,0 3.81583,-0.4473 4.39075,-0.99366 1.67439,-1.59119 -0.45783,-3.22908 -4.20329,-3.22908 -2.635,0 -3.54237,-0.43699 -4.52545,-2.18263 -1.68879,-2.99874 -5.76911,-4.85812 -9.42719,-4.29399 l -2.97299,0.45922 0,-6.28131 0,-6.28134 12.83343,0 c 12.60561,0 15.35259,-0.57644 13.07227,-2.74346 -0.5589,-0.53114 -6.67066,-1.07201 -14.73999,-1.30508 l -13.78601,-0.39852 z m 6.89439,20.69142 c 0.74757,-0.0184 1.55434,0.13118 2.39118,0.49354 2.99189,1.29547 3.36308,5.56086 0.6568,7.54287 -1.889,1.38345 -2.95771,1.33206 -5.34748,-0.25865 -4.0451,-2.69251 -1.73728,-7.67841 2.2995,-7.77776 z"
           style="fill:#ffffff"
           inkscape:connector-curvature="0" />
        <path
           id="path4192"
           d="m 189.71166,-218.39155 c 5.06231,-2.06955 11.73298,-8.5838 14.1857,-13.85307 2.32417,-4.99312 2.50009,-12.94205 0.41558,-18.77792 -2.25205,-6.30498 -9.07003,-12.79191 -16.09071,-15.30944 -10.24706,-3.67447 -21.185,-1.45646 -28.88019,5.85639 -5.11999,4.86562 -7.3206,9.53835 -7.80398,16.57085 -0.52753,7.67495 1.31871,13.19479 6.16243,18.42413 8.51173,9.18937 20.42184,11.82695 32.01117,7.08906 z"
           style="fill:none;stroke:#ffffff;stroke-width:3.8119154;stroke-miterlimit:4;stroke-dasharray:none;stroke-opacity:1"
           inkscape:connector-curvature="0" />
        <path
           id="path4188"
           d="m 178.38446,-250.29517 c -1.33125,-0.0217 -2.74595,0.24534 -4.19079,0.87095 -2.44793,1.05994 -5.07533,4.89585 -5.07533,7.40827 0,7.38502 9.71404,11.28717 15.176,6.09658 6.0377,-5.73771 1.27885,-14.25818 -5.90988,-14.3758 z m -0.0944,3.89812 c 0.61632,0.0147 1.24293,0.19166 1.84683,0.57271 2.55458,1.61191 3.28712,4.27846 1.74963,6.36446 -1.53386,2.0811 -5.7858,2.41002 -7.3915,0.57138 -2.55497,-2.92557 0.46685,-7.58794 3.79504,-7.50855 z"
           style="fill:#ffffff"
           inkscape:connector-curvature="0" />
        <path
           id="path4184"
           d="m 234.52692,-268.07685 c -8.68536,-0.16571 -17.18155,6.05414 -18.099,15.12796 -0.61077,6.04052 2.63,12.07257 8.77593,16.33144 5.84284,4.04884 9.28022,4.18868 13.63606,0.55425 l 3.13268,-2.61283 0.96924,2.40168 c 2.17911,5.39423 -0.67014,11.77631 -6.4806,14.51566 -7.33574,3.45847 -13.09885,1.22533 -19.4987,-7.55209 -1.32476,-1.81692 -1.54308,-1.87329 -2.0954,-0.54763 -1.46303,3.5115 3.48513,10.72847 8.88981,12.96644 3.64377,1.5088 9.60068,1.45259 13.58467,-0.12932 11.52494,-4.57618 14.39355,-17.84093 5.89738,-27.27363 -6.76669,-7.51257 -13.95757,-8.14521 -18.14899,-1.5954 l -1.69826,2.65504 -1.4372,-3.26733 c -2.55459,-5.81023 0.14315,-12.88324 6.0043,-15.74291 6.21428,-3.03194 10.8831,-1.8123 16.75623,4.37713 3.3219,3.50081 4.24268,4.06353 5.08089,3.10373 1.71625,-1.96521 -2.07708,-8.04375 -6.79442,-10.88675 -2.66345,-1.6052 -5.57951,-2.37022 -8.47462,-2.42544 z m -2.00514,21.69431 c 0.77687,-0.006 1.60937,0.1689 2.45504,0.56745 2.40841,1.13497 3.32124,4.99822 1.63716,6.92659 -1.72998,1.98096 -5.93501,1.50641 -7.56231,-0.85378 -2.21497,-3.2125 0.10367,-6.61692 3.47011,-6.64026 z"
           style="fill:#ffffff"
           inkscape:connector-curvature="0" />
        <path
           id="path4180"
           d="m 360.4326,-267.19272 c -0.38104,-0.0232 -0.82874,0.21618 -1.35944,0.63473 -0.65547,0.51696 -5.5726,8.35896 -10.9255,17.42671 -9.25915,15.68499 -9.86096,16.48734 -12.39741,16.4964 -2.56787,0.009 -3.00992,-0.6183 -11.99749,-17.01764 -5.13227,-9.36466 -9.82874,-17.18143 -10.43672,-17.37128 -2.46414,-0.76948 -2.99727,4.46367 -2.72443,26.79064 0.15061,12.32415 0.6105,22.90032 1.02062,23.50349 0.56937,0.83745 1.03773,0.86687 1.98292,0.12141 0.97836,-0.77162 1.2877,-5.02227 1.47608,-20.27971 l 0.23885,-19.30319 6.96937,12.67086 6.96938,12.67217 -1.28307,3.13274 c -3.51313,8.57971 6.15274,15.68296 13.42637,9.8667 3.43411,-2.74603 4.24946,-6.20105 2.35645,-9.99205 -1.68874,-3.38197 -1.94557,-2.75731 7.80254,-18.94955 4.83242,-8.02697 5.82906,-9.23261 6.28897,-7.60093 0.30063,1.0666 0.55293,10.01449 0.55961,19.88514 0.0115,17.15636 0.088,17.94664 1.72602,17.94664 2.48336,0 2.9571,-5.29534 2.59252,-28.96271 -0.25504,-16.55657 -0.63448,-21.5701 -2.28564,-21.67057 z m -24.04776,38.8228 c 4.22555,-0.0226 5.83248,5.5961 2.2773,7.96252 -2.62973,1.75042 -3.88405,1.6586 -6.10012,-0.44735 -1.3729,-1.3047 -1.70039,-2.34467 -1.26223,-4.00368 0.71032,-2.68951 1.8757,-3.49428 5.08505,-3.51149 z"
           style="fill:#ffffff"
           inkscape:connector-curvature="0" />
        <path
           id="path4175"
           d="m 280.80754,-268.18506 c -2.40223,-0.1206 -4.717,0.91512 -6.73054,3.09446 -2.91048,3.15018 -3.29773,4.84514 -1.90377,8.32936 0.70931,1.77294 -0.3454,5.07795 -6.22092,19.49191 -3.89128,9.54616 -7.07491,18.11026 -7.07491,19.03267 0,1.90919 1.96563,2.22871 3.42567,0.55688 0.67607,-0.77415 14.3484,-33.04964 14.3484,-33.87165 0,-0.0307 1.725,-0.0568 3.83391,-0.0568 l 3.83393,0 7.35958,17.52438 c 5.80686,13.82772 7.70021,17.52437 8.97729,17.52437 0.89017,0 1.78545,-0.47292 1.98848,-1.05173 0.20302,-0.57883 -2.94736,-8.76368 -6.99994,-18.18813 -7.18864,-16.71751 -7.35477,-17.2651 -6.84718,-22.43067 0.50822,-5.17203 0.45336,-5.34707 -2.32729,-7.57058 -1.87368,-1.49827 -3.79431,-2.29073 -5.66271,-2.38453 z m 0.008,4.0446 c 3.45758,-0.0501 5.7737,3.28337 3.4965,6.58614 -1.77551,2.57513 -4.97469,2.81069 -7.1499,0.52653 -2.02354,-2.12488 -1.48074,-5.26871 1.12061,-6.49642 0.87717,-0.41399 1.73489,-0.6047 2.53279,-0.61625 z"
           style="fill:#ffffff"
           inkscape:connector-curvature="0" />
      </g>
    </g>
  </g>
</svg>
